<?xml version="1.0" encoding="UTF-8"?>
<svg id="Layer_1" data-name="Layer 1" xmlns="http://www.w3.org/2000/svg" viewBox="0 0 286.97 276.18">
  <defs>
    <style>
      .cls-1 {
        fill: #5ec2fd;
      }

      .cls-1, .cls-2, .cls-3, .cls-4, .cls-5, .cls-6, .cls-7, .cls-8, .cls-9, .cls-10, .cls-11, .cls-12, .cls-13, .cls-14, .cls-15, .cls-16, .cls-17, .cls-18, .cls-19, .cls-20, .cls-21, .cls-22, .cls-23, .cls-24, .cls-25, .cls-26, .cls-27 {
        stroke-width: 0px;
      }

      .cls-2 {
        fill: #78cdfd;
      }

      .cls-3 {
        fill: #4fbdfe;
      }

      .cls-4 {
        fill: #50befe;
      }

      .cls-5 {
        fill: #87d5fd;
      }

      .cls-6 {
        fill: #1694fa;
      }

      .cls-7 {
        fill: #1694f9;
      }

      .cls-8 {
        fill: #1695fc;
      }

      .cls-9 {
        fill: #1695fa;
      }

      .cls-10 {
        fill: #0e75da;
      }

      .cls-11 {
        fill: #096bc9;
      }

      .cls-12 {
        fill: #1493f9;
      }

      .cls-13 {
        fill: #177de9;
      }

      .cls-14 {
        fill: #1792f8;
      }

      .cls-15 {
        fill: #1593fa;
      }

      .cls-16 {
        fill: #8ed8fd;
      }

      .cls-17 {
        fill: #8fd8fd;
      }

      .cls-18 {
        fill: #8cd4fd;
      }

      .cls-19 {
        fill: #9edcfd;
      }

      .cls-20 {
        fill: #90d9fe;
      }

      .cls-21 {
        fill: #90d8fe;
      }

      .cls-22 {
        fill: #7dcffe;
      }

      .cls-23 {
        fill: #0466c0;
      }

      .cls-24 {
        fill: #024988;
      }

      .cls-25 {
        fill: #034a8a;
      }

      .cls-26 {
        fill: #044f92;
      }

      .cls-27 {
        fill: #68c7fd;
      }
    </style>
  </defs>
  <g id="TDEQLV">
    <g>
      <path class="cls-26" d="m219.66,221.44c5.55,5.23,10.44,11.08,15.68,16.6,8.68,9.15,17.22,18.44,25.82,27.66.42.45.85.89,1.26,1.34,1.73,1.93,2.36,4.12,1.28,6.54-1.01,2.27-3.04,2.59-5.28,2.59-30.5-.03-60.99-.03-91.49-.03-45.22,0-90.44,0-135.66,0-.61,0-1.23-.01-1.84,0-2.27.07-4.52-.1-5.61-2.49-1.15-2.54-.35-4.76,1.48-6.72,5.68-6.08,11.36-12.16,17.03-18.25,7.64-8.21,15.27-16.42,22.92-24.62.53-.57,1.14-1.07,1.72-1.6,1.52-.86,3.08-.91,4.81-.59,9.8,1.84,18.95,5.55,28.05,9.45,10.91,4.68,22.21,8.08,34.03,9.43,10.77,1.23,21.45.37,32.02-2.09,9.08-2.11,17.72-5.44,26.24-9.14,7.73-3.35,15.61-6.2,23.92-7.77,1.22-.23,2.43-.25,3.65-.34Z"/>
      <path class="cls-11" d="m219.66,221.44c-.13.56-.43.94-1.04,1.02-12.34,1.58-23.35,7.12-34.73,11.59-11.11,4.36-22.52,7.31-34.55,8.02-13.87.82-27.08-1.64-40.12-6.04-7.97-2.69-15.47-6.57-23.45-9.2-6.14-2.02-12.25-4.19-18.82-4.35,7.05-7.56,14.11-15.11,21.16-22.67.24.1.58.2.64.43.73,3.17,3.19,3.69,5.92,4.45,6.19,1.72,12.39,2.86,18.83,2.62,3.82-.15,7.4,1.24,11.11,1.83,2.6.41,5.15,1,7.81.55.69-.12,1.41-.1,2.09.08,6.47,1.71,13.07,1.07,19.54.5,6.75-.59,13.51-1.59,20.09-3.45,1.02-.29,2.04-.54,3.1-.49,2,.11,3.73-.52,5.42-1.59,3.08-1.95,6.8-2.13,10.15-3.36.32-.12.74-.09,1.03.07,2.28,1.26,4.57.53,6.85.06,4.39,3.69,7.87,8.25,11.89,12.3,2.44,2.46,4.72,5.09,7.07,7.64Z"/>
      <path class="cls-10" d="m200.69,201.5c-1.82,1.78-3.73,2.93-6.21,1.1-.74-.55-1.65-.79-2.45-.18-1.46,1.12-3.24,1.21-4.91,1.65-1.68.44-3.31.79-4.7,2.09-.82.77-2.32,1.44-3.35,1.25-3.92-.71-7.2,1.61-10.92,1.9-5.78.45-11.43,2.37-17.28,2.12-4.73-.21-9.37.81-14.24-.25-5.26-1.14-10.94-.14-16.23-1.85-4.43-1.44-9.01-.51-13.46-1.09-4.28-.56-8.64-.91-12.66-2.78-.67-.31-1.55-.16-2.3-.33-1.78-.4-4.02-.31-3.41-3.3.13-.62-.3-1.35-.47-2.02,10.75-11.69,21.45-23.42,32.58-34.76,1.13,1.05.56,2.47.81,3.71.12.58-.02,1.29.71,1.55.78.28,1.34-.17,1.86-.66.13-.12.26-.24.35-.39,1.7-2.77,3.79-4.09,6.9-1.96.53.37,1.19.22,1.79.06,1.55-.43,2.94-.22,4.11.97,1.15,1.17,2.27,1.08,3.41-.05,1.51-1.51,2.89-1.73,4.33.23.91,1.23,2.04,1.01,3.11-.07,2.77-2.78,2.79-2.76,6.21-.9.7.38,1.39.76,2.22.66,1.79-.21,3.17.5,4.52,1.64,2.01,1.69,2.99,1.54,4.2-.79.99-1.9,2.53-.99,3.88-1.14,4.53,3.99,8.45,8.59,12.57,12.97,6.4,6.81,12.67,13.73,19,20.61Z"/>
      <path class="cls-23" d="m90.69,142.42c-2.56-19.83,3.36-36.66,18.84-49.39,27.54-22.65,67.98-13.32,83.03,18.86,4.54,9.69,5.9,19.89,4.3,30.48-1.52.55-2.22-.7-3.03-1.49-4.22-4.15-8.4-8.34-12.57-12.54-4.75-4.75-9.53-9.46-14.23-14.26-6.1-5.66-11.54-11.98-17.66-17.62-4.04-3.72-7.47-3.81-11.48.06-5.79,5.61-11.38,11.42-17.15,17.05-6.2,6.63-12.44,13.22-18.98,19.52-2.71,2.75-5.34,5.57-8.25,8.1-.76.67-1.43,1.89-2.83,1.23Z"/>
      <path class="cls-4" d="m238.53,210.44c-3.63-2.38-6.17-5.89-9.16-8.92-7.35-7.47-14.55-15.09-21.81-22.66-.46-3.19,1.22-4.83,4.19-3.7,2.29.87,4.35,1.7,6.6.11.34-.24.87-.28,1.28-.17,3.31.92,6.64.73,9.98.2,9.01,8.31,17.34,17.3,25.99,25.97,1.6,1.6,3.48,2.95,4.66,4.95-.14,1.4-1.3,1.78-2.32,2.19-5.22,2.09-10.58,3.41-16.27,3.06-1.17-.07-2.23-.27-3.15-1.04Z"/>
      <path class="cls-13" d="m169.13,167.92c-.37.54-.82.92-1.53.68-.97-.33-1.36.02-1.62,1.03-.61,2.45-3.32,3.36-5.07,1.5-1.45-1.54-2.67-2.57-4.91-1.86-.91.29-1.77-.53-2.55-1.12-2.35-1.78-2.89-1.67-4.42.81-1.32,2.14-4.04,2.1-5.09-.22-.76-1.69-1.35-1.11-2.23-.22-2.54,2.6-3.07,2.66-5.43.2-.82-.85-1.58-1.09-2.52-.54-1.42.84-2.68.65-3.82-.43-1.63-1.55-2.64-.8-3.79.72-1.04,1.38-1.5,3.71-4.15,3.07-1.22-.29-1.87-.73-1.54-2.14.33-1.42-.32-2.92.23-4.35,5.99-7.18,12.57-13.82,19.13-20.46,2.59-2.62,5.91-2.15,8.73.93,4.05,4.43,8.01,8.95,12.06,13.38,2.79,3.05,5.67,6.02,8.52,9.02Z"/>
      <path class="cls-24" d="m49.25,210.43c-1.86,3.32-4.9,5.63-7.38,8.4-4.08,4.56-8.45,8.85-12.65,13.3-1.28,1.35-2.64,2.04-4.58,2.01-7.08-.11-14.17-.05-21.25-.08-.83,0-1.72.26-3.39-.89,2.16-1.83,4.27-3.38,6.09-5.21,6.53-6.57,12.96-13.25,19.45-19.87.66-.68,1.43-1.25,2.15-1.87,1.23-.54,2.4-.11,3.54.3,4.92,1.78,9.89,3.26,15.24,2.85,1.03-.08,2.11.05,2.79,1.05Z"/>
      <path class="cls-25" d="m238.53,210.44c7.13.32,14.03-.62,20.57-3.63.39-.18.77-.39,1.16-.59,8.78,8.92,17.57,17.83,26.34,26.76.17.17.24.43.37.68-.57.7-1.32.39-1.96.4-7.45.03-14.89,0-22.34.04-1.4,0-2.52-.31-3.51-1.36-6.68-7.06-13.4-14.09-20.09-21.14-.28-.29-.37-.76-.55-1.15Z"/>
      <path class="cls-2" d="m90.69,142.42c3.81-2.95,6.73-6.85,10.42-9.92.33-.13.72-.27,1.01-.1,3.79,2.11,7.55.79,11.36.06,2.38-.46,4.77-.91,7.18-1.26,1.05-.15,2.19.06,2.69,1.17.5,1.09-.72,1.39-1.18,2.05-.59.84-1.72,1.24-1.92,2.39-7.77,8.16-15.52,16.33-23.33,24.45-1.12,1.17-1.95,2.68-3.53,3.38-.74-.9-.1-1.65.31-2.38.94-1.67-.17-2.02-1.3-1.63-2.38.83-4.61.68-6.89-.2-.84-.32-1.88-.31-2.57.11-2.82,1.73-6.17,1.81-9.12,3.12-1.24.55-2.59,1.27-3.82-.11,6.15-6.2,12.31-12.39,18.45-18.6.79-.8,1.49-1.67,2.23-2.51Z"/>
      <path class="cls-27" d="m229.62,175.31c-2.91,2.22-6.05,2.01-9.26.83-1.2-.44-2.25-.21-3.11.67-1.21,1.25-2.4,1.04-3.75.25-3.88-2.26-4.54-2.04-5.93,1.81-4.49-4.63-9-9.25-13.46-13.91-2.23-2.33-4.38-4.74-6.57-7.11-.55-1.13-1.61-1.83-2.42-2.74-1.38-1.56-1.08-3.63.89-4.13,5.67-1.42,11.44-2.25,17.32-1.97,7.38,6.94,14.47,14.17,21.52,21.45,1.58,1.63,3.18,3.23,4.77,4.85Z"/>
      <path class="cls-19" d="m120.25,113.13c6.15-6.19,12.2-12.49,18.51-18.51,3.13-2.99,7.38-2.72,10.63.46,6.18,6.05,12.19,12.27,18.27,18.42-.15,1.9-1.55,1.28-2.54,1.15-3.59-.48-7.13-.47-10.66.5-2.77.76-3.16,1.39-2.07,4.07.27.66.56,1.32-.12,1.91-1.55-1.64-3.12-3.26-4.66-4.91-2.63-2.82-5.19-2.82-7.77-.01-1.06,1.15-2.15,2.26-3.23,3.39-2.16-3.26-5.14-4.2-8.94-3.54-2.07.36-4.09-.58-6.04-1.31-.69-.26-1.51-.59-1.36-1.63Z"/>
      <path class="cls-1" d="m70.01,163.53c1.27.2,2.41-.14,3.5-.76,1.45-.83,2.96-1.47,4.7-1.29.83.08,1.47-.34,2.13-.82,2.09-1.52,4.31-2.12,6.77-.76,1.29.71,2.66.85,3.97,0,.87-.57,1.82-.51,2.78-.48.76.02,1.3.39,1.66,1.07.43.8-.04,1.3-.54,1.82-.65.68-1.49,1.25-1.57,2.32-1.73,2.75-4.2,4.86-6.44,7.13-5.43,5.52-10.49,11.42-16.33,16.54-1.49,1.31-2.26,3.3-4,4.39-1.26-1.35-.19-2.42.48-3.49.63-1.02,1.06-1.94.29-3.13-.74-1.15-1.69-1.23-2.92-1.18-3.77.13-7.46.85-11.18,1.38-1.51.22-2.73,1.13-4.07,1.77-1.22.58-2.47,1.52-3.83.24,7.96-8.49,16.25-16.65,24.61-24.74Z"/>
      <path class="cls-3" d="m45.4,188.26c.59-.09,1.33.01,1.76-.3,5.5-3.88,12.03-3.32,18.2-4.33,1.74-.29,2.39.99,3.23,2.14.96,1.33.56,2.47-.26,3.58-.76,1.03-1.99,1.78-1.7,3.33-5.62,6.09-11.12,12.28-17.38,17.74-7.57.53-14.73-.99-21.57-4.21,5.6-6.28,11.65-12.13,17.71-17.95Z"/>
      <path class="cls-22" d="m203.33,149c-2.65.93-5.43,1.65-8.19,1.36-3.07-.32-5.69,1.54-8.73,1.26-1.2-.11-1.77,2.17-1,3.24.71.99,2.25,1.39,2.13,2.97-6.5-6.77-13-13.53-19.5-20.3-.25-1.05-.99-1.82-1.55-2.69-1.42-2.23-.91-3.73,1.54-4.68,2.14-.82,4.44-.81,6.65-1.22,2.37-.44,4.77-.78,7.15-1.2,5.02,4.87,10.03,9.75,15.05,14.62,2.15,2.21,4.3,4.43,6.46,6.64Z"/>
      <path class="cls-21" d="m149.6,26.64c.51,9.26,1.15,18.52,1.48,27.8.16,4.54-3.16,7.61-7.59,7.64-4,.03-7.48-3.24-7.31-7.36.38-9.36.99-18.71,1.51-28.06.98-.96,2.24-.98,3.46-.88,2.82.25,5.78-.81,8.46.86Z"/>
      <path class="cls-20" d="m94.88,38.36c5.12,7.62,10.31,15.2,15.32,22.89,2.68,4.11,1.54,8.53-2.47,10.83-4.09,2.35-8.23,1.07-10.53-3.38-4.13-8-8.17-16.04-12.25-24.06-.03-.36,0-.75.3-.96,3.03-2.1,5.75-4.77,9.63-5.31Z"/>
      <path class="cls-17" d="m202.56,44.59c-4.38,8.46-8.69,16.95-13.18,25.35-1.66,3.1-5.7,4.08-8.98,2.57-3.56-1.64-5.37-5.1-4.4-8.53.21-.75.51-1.51.94-2.15,5.15-7.81,10.33-15.59,15.51-23.38,3.13-.03,5.08,2.41,7.61,3.64,1.08.52,2.19,1.14,2.5,2.5Z"/>
      <path class="cls-16" d="m239.14,85.34c-1.61,1.77-3.79,2.75-5.74,4.04-5.45,3.62-10.91,7.24-16.45,10.72-4.21,2.64-8.6,1.58-10.82-2.38-2.21-3.94-.72-8.09,3.76-10.44,7.64-4.01,15.28-8.01,22.92-12.02,2.65,3.02,5.09,6.17,6.33,10.07Z"/>
      <path class="cls-16" d="m54.5,75.29c8.1,4.22,16.26,8.34,24.28,12.7,3.57,1.94,4.42,6.26,2.35,9.81-2.04,3.51-6.09,4.77-9.74,2.8-2.37-1.28-4.59-2.86-6.84-4.37-5.36-3.58-10.7-7.2-16.05-10.81-.21-.51-.19-1.05.08-1.49,1.84-2.97,3.32-6.19,5.91-8.65Z"/>
      <path class="cls-5" d="m249.94,138.08c-8.82.46-17.63,1.02-26.45,1.34-4.01.15-7.07-2.94-7.23-6.77-.18-4.05,2.56-7.36,6.71-7.55,6.91-.33,13.8.41,20.7.64,2.17.07,4.38-.14,6.51.5,1.63,2.63,1.48,9.59-.24,11.85Z"/>
      <path class="cls-5" d="m37.51,126.23c6.53-.35,13.07-.73,19.6-1.04,2.62-.12,5.26-.28,7.86-.09,3.67.26,6.41,3.49,6.33,7.11-.08,3.73-2.79,7.14-6.34,7.15-9.17.02-18.31-.66-27.45-1.4-1.49-3.91-1.51-7.82,0-11.73Z"/>
      <path class="cls-18" d="m120.25,113.13c3.13,1.25,6.16,2.54,9.76,1.68,3.17-.76,6.29,1.76,6.58,4.79-5.16,6-10.75,11.59-16.33,17.18-.8-1.82,1.31-1.89,1.8-2.95.19-.4,1.05-.52.85-1.14-.22-.71-.97-.66-1.57-.64-2.44.05-4.85.76-7.13,1.32-2.38.59-4.81.45-7.11,1.18-2.5.79-4.25-.63-5.99-2.06,6.38-6.45,12.75-12.91,19.13-19.36Z"/>
      <path class="cls-18" d="m181.82,127.74c-1.32,1.29-2.71,1.85-4.74,1.92-3.24.1-6.46,1.02-9.67,1.72-1.31.29-1.16,1.24-.64,2.25.63,1.23,1.48,2.4,1.26,3.91-5.26-5.47-10.51-10.93-15.77-16.4.02-.65-.26-1.15-.67-1.65-1.94-2.37-1.27-4.54,1.75-5.19,4.19-.9,8.42-1.73,12.68-.27.64.22,1.2,0,1.63-.53,4.72,4.75,9.44,9.49,14.16,14.24Z"/>
      <path class="cls-6" d="m37.51,126.23c0,3.91,0,7.82,0,11.73-7.85-.23-15.71-.39-23.56-.71-3.26-.13-5.28-2.39-5.23-5.39.05-2.99,2.41-5.55,5.48-5.58,7.77-.09,15.54-.04,23.31-.05Z"/>
      <path class="cls-7" d="m249.94,138.08c.08-3.95.16-7.9.24-11.85,7.86.02,15.73-.04,23.59.09,3.08.05,5.11,2.64,5.01,5.89-.09,2.9-2.13,4.93-5.26,5.05-7.86.3-15.72.55-23.58.82Z"/>
      <path class="cls-15" d="m239.14,85.34c-2.53-3.09-4.99-6.23-6.33-10.07,6.78-3.83,13.52-7.72,20.35-11.44,2.36-1.28,5.08-.22,6.61,2.13,1.5,2.31,1.31,5.06-.96,6.85-2.53,2-5.31,3.69-8.08,5.37-3.89,2.35-7.36,5.36-11.58,7.16Z"/>
      <path class="cls-12" d="m54.5,75.29c-.54,2.93-2.76,4.89-4.18,7.31-.57.97-1.2,1.89-1.81,2.83-6.88-3.67-13.23-8.18-19.7-12.47-2.5-1.66-2.77-4.31-1.32-6.72,1.52-2.52,4.29-3.71,6.72-2.41,6.84,3.68,13.72,7.29,20.29,11.46Z"/>
      <path class="cls-14" d="m149.6,26.64c-3.97.32-7.95.3-11.92.02.15-7.27.23-14.54.47-21.8.09-2.68,2.56-4.78,5.29-4.86,2.84-.08,5.51,2.11,5.64,5.11.3,7.17.36,14.35.52,21.53Z"/>
      <path class="cls-8" d="m202.56,44.59c-3.37-2.05-6.74-4.09-10.11-6.14,3.73-6.11,7.4-12.25,11.22-18.3,1.72-2.72,4.88-3.25,7.57-1.57,2.5,1.55,3.41,4.44,1.97,7.07-3.49,6.35-7.09,12.63-10.65,18.94Z"/>
      <path class="cls-9" d="m94.88,38.36c-3.31,2.09-6.62,4.18-9.93,6.27-3.67-6.45-7.41-12.85-10.95-19.36-1.34-2.46-.2-5.24,2.32-6.7,2.76-1.6,5.79-1.04,7.6,1.65,1.9,2.82,3.59,5.78,5.35,8.7,1.89,3.14,3.74,6.29,5.61,9.44Z"/>
    </g>
  </g>
</svg>